<svg width="32" height="32" viewBox="0 0 32 32" fill="none" xmlns="http://www.w3.org/2000/svg">
<path d="M15 17V21.6667C15 21.95 15.0964 22.1875 15.2892 22.3792C15.482 22.5708 15.7209 22.6667 16.0058 22.6667C16.2908 22.6667 16.5278 22.5708 16.7167 22.3792C16.9056 22.1875 17 21.95 17 21.6667V17H21.6667C21.95 17 22.1875 16.9036 22.3792 16.7108C22.5708 16.518 22.6667 16.2791 22.6667 15.9942C22.6667 15.7092 22.5708 15.4722 22.3792 15.2833C22.1875 15.0944 21.95 15 21.6667 15H17V10.3333C17 10.05 16.9036 9.8125 16.7108 9.62083C16.518 9.42917 16.2791 9.33333 15.9942 9.33333C15.7092 9.33333 15.4722 9.42917 15.2833 9.62083C15.0944 9.8125 15 10.05 15 10.3333V15H10.3333C10.05 15 9.8125 15.0964 9.62083 15.2892C9.42917 15.482 9.33333 15.7209 9.33333 16.0058C9.33333 16.2908 9.42917 16.5278 9.62083 16.7167C9.8125 16.9056 10.05 17 10.3333 17H15ZM6 28C5.46667 28 5 27.8 4.6 27.4C4.2 27 4 26.5333 4 26V6C4 5.46667 4.2 5 4.6 4.6C5 4.2 5.46667 4 6 4H26C26.5333 4 27 4.2 27.4 4.6C27.8 5 28 5.46667 28 6V26C28 26.5333 27.8 27 27.4 27.4C27 27.8 26.5333 28 26 28H6ZM6 26H26V6H6V26Z" fill="black" fill-opacity="0.6"/>
</svg>
