<svg width="current" height="current" viewBox="0 0 377 622" fill="none" xmlns="http://www.w3.org/2000/svg">
<rect x="1" width="375" height="622" fill="#2962FF"/>
<path fill-rule="evenodd" clip-rule="evenodd" d="M1.65165 327.837C3.39833 323.779 8.10424 321.905 12.1626 323.652C14.2644 324.556 16.4046 325.445 18.5822 326.316C21.4259 327.455 23.2565 330.042 23.5648 332.889C25.6646 330.938 28.7464 330.183 31.6425 331.19C35.9596 332.69 40.3964 334.129 44.9454 335.503C47.8912 336.394 49.9459 338.83 50.4899 341.655C52.4304 339.528 55.457 338.524 58.4354 339.305C62.8941 340.474 67.4434 341.584 72.0769 342.634C75.087 343.315 77.313 345.611 78.0491 348.402C79.8455 346.141 82.8081 344.934 85.839 345.521C88.1284 345.964 90.4354 346.393 92.7593 346.808C95.3729 347.274 98.0034 347.72 100.65 348.147C105.011 348.851 107.977 352.958 107.273 357.32C106.569 361.681 102.462 364.647 98.1004 363.943C95.3688 363.502 92.652 363.041 89.9512 362.559C87.5498 362.131 85.1646 361.688 82.7964 361.229C79.679 360.625 77.3375 358.287 76.5788 355.409C74.7267 357.74 71.6416 358.94 68.5436 358.239C63.7389 357.151 59.0143 355.998 54.3764 354.781C51.298 353.974 49.1109 351.479 48.5471 348.55C46.5356 350.755 43.3653 351.741 40.3172 350.819C35.5667 349.384 30.9214 347.878 26.3899 346.303C23.3721 345.254 21.3823 342.58 21.0601 339.601C18.8635 341.643 15.6044 342.359 12.6358 341.17C10.3344 340.249 8.06785 339.308 5.83734 338.348C1.77897 336.602 -0.0950202 331.896 1.65165 327.837ZM375.348 327.837C377.095 331.896 375.221 336.602 371.163 338.348C368.932 339.308 366.665 340.249 364.364 341.17C361.396 342.359 358.136 341.643 355.94 339.601C355.618 342.58 353.628 345.254 350.61 346.303C346.078 347.878 341.433 349.384 336.683 350.819C333.635 351.741 330.464 350.755 328.453 348.55C327.889 351.479 325.702 353.974 322.624 354.781C317.986 355.998 313.261 357.151 308.456 358.239C305.358 358.94 302.273 357.74 300.421 355.409C299.662 358.287 297.321 360.625 294.204 361.229C291.835 361.688 289.45 362.131 287.049 362.559C284.348 363.041 281.631 363.502 278.9 363.943C274.538 364.647 270.431 361.681 269.727 357.32C269.023 352.958 271.989 348.851 276.35 348.147C278.997 347.72 281.627 347.274 284.241 346.808C286.565 346.393 288.872 345.964 291.161 345.521C294.192 344.934 297.154 346.141 298.951 348.402C299.687 345.611 301.913 343.315 304.923 342.634C309.557 341.584 314.106 340.474 318.565 339.305C321.543 338.524 324.569 339.528 326.51 341.655C327.054 338.83 329.109 336.394 332.055 335.503C336.604 334.129 341.04 332.69 345.357 331.19C348.254 330.183 351.335 330.938 353.435 332.889C353.743 330.042 355.574 327.455 358.418 326.317C360.595 325.445 362.736 324.556 364.837 323.652C368.896 321.905 373.602 323.779 375.348 327.837ZM269.457 357.356C270.024 361.738 266.931 365.75 262.549 366.316C257.126 367.017 251.655 367.64 246.145 368.185C241.749 368.62 237.832 365.409 237.397 361.012C236.962 356.615 240.174 352.698 244.57 352.263C249.923 351.734 255.235 351.128 260.498 350.448C264.88 349.882 268.891 352.975 269.457 357.356ZM107.543 357.356C108.109 352.975 112.12 349.882 116.502 350.448C121.765 351.128 127.077 351.734 132.429 352.263C136.826 352.698 140.038 356.615 139.603 361.012C139.168 365.409 135.251 368.62 130.855 368.185C125.345 367.64 119.874 367.017 114.451 366.316C110.069 365.75 106.976 361.738 107.543 357.356ZM139.875 361.033C140.182 356.626 144.005 353.302 148.412 353.61C153.725 353.981 159.068 354.278 164.433 354.501C168.847 354.685 172.277 358.412 172.094 362.826C171.91 367.241 168.183 370.671 163.768 370.487C158.255 370.258 152.762 369.953 147.298 369.571C142.891 369.263 139.567 365.441 139.875 361.033ZM237.125 361.033C237.433 365.441 234.109 369.263 229.702 369.571C224.238 369.953 218.745 370.258 213.232 370.487C208.817 370.671 205.09 367.241 204.906 362.826C204.723 358.412 208.153 354.685 212.567 354.501C217.932 354.278 223.275 353.981 228.587 353.61C232.995 353.302 236.817 356.626 237.125 361.033ZM172.365 362.834C172.426 358.416 176.057 354.884 180.475 354.945C183.147 354.982 185.822 355 188.5 355C191.177 355 193.853 354.982 196.525 354.945C200.943 354.884 204.574 358.416 204.635 362.834C204.696 367.251 201.164 370.882 196.746 370.943C194 370.981 191.251 371 188.5 371C185.749 371 183 370.981 180.254 370.943C175.836 370.882 172.304 367.251 172.365 362.834Z" fill="#FFD702"/>
<path d="M173 123C173 114.163 180.163 107 189 107C197.837 107 205 114.163 205 123V163H173V123Z" fill="#0C44DF"/>
<path fill-rule="evenodd" clip-rule="evenodd" d="M213 171H165V123C165 109.745 175.745 99 189 99C202.255 99 213 109.745 213 123V171ZM189 107C180.163 107 173 114.163 173 123V163H205V123C205 114.163 197.837 107 189 107Z" fill="black"/>
<path d="M60.451 267C32.0354 267 8.39099 242.588 22.6636 218.016C31.6843 202.487 44.9062 188.376 61.5743 176.49C78.2424 164.604 98.0304 155.176 119.808 148.743C141.586 142.311 164.928 139 188.5 139C212.072 139 235.414 142.311 257.192 148.743C278.97 155.176 298.758 164.604 315.426 176.49C332.094 188.376 345.316 202.487 354.336 218.017C368.609 242.588 344.965 267 316.549 267L60.451 267Z" fill="#FF6174"/>
<path d="M124.343 164.088C144.594 158.106 166.406 155 188.502 155C210.599 155 232.41 158.106 252.661 164.088C272.921 170.072 291.066 178.769 306.139 189.517C308.737 191.37 311.7 192.336 314.668 192.474C323.167 192.871 323.005 181.95 316.102 176.975C315.877 176.813 315.652 176.652 315.426 176.49C298.758 164.604 278.97 155.176 257.192 148.743C235.414 142.311 212.072 139 188.5 139C164.928 139 141.586 142.311 119.808 148.743C98.0305 155.176 78.2425 164.604 61.5744 176.49C61.3486 176.651 61.1234 176.813 60.8989 176.975C53.997 181.949 53.8331 192.868 62.3317 192.474C65.3006 192.337 68.2657 191.371 70.8655 189.517C85.9385 178.769 104.083 170.072 124.343 164.088Z" fill="white"/>
<circle cx="189" cy="227" r="32" fill="#881725"/>
<ellipse cx="189" cy="267" rx="100" ry="40" fill="#FF3767"/>
<rect x="61" y="267" width="254" height="40" fill="#2962FF"/>
<path d="M61 259C61 254.582 64.5817 251 69 251H307C311.418 251 315 254.582 315 259C315 263.418 311.418 267 307 267H69C64.5817 267 61 263.418 61 259Z" fill="white"/>
<path d="M205 85C205 80.5817 208.582 77 213 77H344C348.418 77 352 80.5817 352 85V110.2C352 114.121 349.159 117.464 345.289 118.096L214.289 139.483C209.421 140.278 205 136.521 205 131.588V85Z" fill="black" fill-opacity="0.8"/>
<path fill-rule="evenodd" clip-rule="evenodd" d="M344 85H213V131.588L344 110.2V85ZM213 77C208.582 77 205 80.5817 205 85V131.588C205 136.521 209.421 140.278 214.289 139.483L345.289 118.096C349.159 117.464 352 114.121 352 110.2V85C352 80.5817 348.418 77 344 77H213Z" fill="black"/>
<path d="M26 85C26 80.5817 29.5817 77 34 77H165C169.418 77 173 80.5817 173 85V131.588C173 136.521 168.579 140.278 163.711 139.483L32.711 118.096C28.8415 117.464 26 114.121 26 110.2V85Z" fill="black" fill-opacity="0.8"/>
<path fill-rule="evenodd" clip-rule="evenodd" d="M165 85H34L34 110.2L165 131.588V85ZM34 77C29.5817 77 26 80.5817 26 85V110.2C26 114.121 28.8415 117.464 32.711 118.096L163.711 139.483C168.579 140.278 173 136.521 173 131.588V85C173 80.5817 169.418 77 165 77H34Z" fill="black"/>
<circle cx="181" cy="127" r="4" fill="#002691"/>
<circle cx="197" cy="127" r="4" fill="#002691"/>
<path d="M213 87C213 85.8954 213.895 85 215 85C216.105 85 217 85.8954 217 87V99C217 100.105 216.105 101 215 101C213.895 101 213 100.105 213 99V87Z" fill="white"/>
<path d="M34 87C34 85.8954 34.8954 85 36 85C37.1046 85 38 85.8954 38 87V99C38 100.105 37.1046 101 36 101C34.8954 101 34 100.105 34 99V87Z" fill="white"/>
<path d="M215 89C213.895 89 213 88.1046 213 87C213 85.8954 213.895 85 215 85L235 85C236.105 85 237 85.8954 237 87C237 88.1046 236.105 89 235 89L215 89Z" fill="white"/>
<path d="M36 89C34.8954 89 34 88.1046 34 87C34 85.8954 34.8954 85 36 85L56 85C57.1046 85 58 85.8954 58 87C58 88.1046 57.1046 89 56 89L36 89Z" fill="white"/>
</svg>
