<svg width="current" height="current" viewBox="0 0 375 622" fill="none" xmlns="http://www.w3.org/2000/svg">
<rect width="375" height="622" fill="#E40C0C"/>
<path d="M8 203C8 167.654 36.6538 139 72 139H303C338.346 139 367 167.654 367 203C367 238.346 338.346 267 303 267H72C36.6538 267 8 238.346 8 203Z" fill="#560909"/>
<path d="M72 139H96V167C96 173.627 90.6274 179 84 179C77.3726 179 72 173.627 72 167V139Z" fill="white"/>
<path d="M120 139H144V159C144 165.627 138.627 171 132 171C125.373 171 120 165.627 120 159V139Z" fill="white"/>
<path d="M279 139H303V163C303 169.627 297.627 175 291 175C284.373 175 279 169.627 279 163V139Z" fill="white"/>
<circle cx="188" cy="227" r="32" fill="#360505"/>
<ellipse cx="188" cy="267" rx="100" ry="40" fill="#FD3E3E"/>
<path d="M128 267L104 267L104 247C104 240.373 109.373 235 116 235C122.627 235 128 240.373 128 247L128 267Z" fill="white"/>
<path d="M271 267L247 267L247 247C247 240.373 252.373 235 259 235C265.627 235 271 240.373 271 247L271 267Z" fill="white"/>
<path fill-rule="evenodd" clip-rule="evenodd" d="M303 155H72C45.4903 155 24 176.49 24 203C24 229.51 45.4903 251 72 251H303C329.51 251 351 229.51 351 203C351 176.49 329.51 155 303 155ZM72 139C36.6538 139 8 167.654 8 203C8 238.346 36.6538 267 72 267H303C338.346 267 367 238.346 367 203C367 167.654 338.346 139 303 139H72Z" fill="#FF6767"/>
<rect x="72" y="267" width="231" height="73" fill="#E40C0C"/>
<circle cx="88" cy="99" r="28" fill="white"/>
<circle cx="86" cy="87" r="12" fill="black"/>
<circle cx="90" cy="96" r="3" fill="white"/>
<circle cx="288" cy="99" r="28" fill="white"/>
<circle cx="287" cy="87" r="12" fill="black"/>
<circle cx="291" cy="96" r="3" fill="white"/>
</svg>
