<svg width="current" height="current" viewBox="0 0 375 622" fill="none" xmlns="http://www.w3.org/2000/svg">
<rect width="375" height="622" fill="#FF5CBE"/>
<path d="M367 203C367 238.346 286.635 267 187.5 267C88.3649 267 8 238.346 8 203C8 167.654 88.3649 139 187.5 139C286.635 139 367 167.654 367 203Z" fill="#FD0079"/>
<circle cx="188" cy="227" r="32" fill="#870041"/>
<ellipse cx="188" cy="267" rx="100" ry="40" fill="#E2006D"/>
<path fill-rule="evenodd" clip-rule="evenodd" d="M375 0H0V622H375V0ZM187.5 267C286.635 267 367 238.346 367 203C367 167.654 286.635 139 187.5 139C88.3649 139 8 167.654 8 203C8 238.346 88.3649 267 187.5 267Z" fill="#FF5CBE"/>
<path d="M95.0001 74.5C97.0001 80.5 105.5 85.5 109.5 85.5L108.5 91C103 90 94.0002 83.5 95.0001 74.5Z" fill="black"/>
<path d="M281.5 75C279.5 81 271 86 267 86L268 91.5C273.5 90.5 282.5 84 281.5 75Z" fill="black"/>
<ellipse cx="124" cy="103" rx="20" ry="28" fill="black"/>
<path d="M140 103C140 109.365 138.314 115.47 135.314 119.971C132.313 124.471 128.243 127 124 127C119.757 127 115.687 124.471 112.686 119.971C109.686 115.47 108 109.365 108 103L124 103H140Z" fill="white" fill-opacity="0.08"/>
<ellipse cx="252" cy="103" rx="20" ry="28" fill="black"/>
<path d="M268 103C268 109.365 266.314 115.47 263.314 119.971C260.313 124.471 256.243 127 252 127C247.757 127 243.687 124.471 240.686 119.971C237.686 115.47 236 109.365 236 103L252 103H268Z" fill="white" fill-opacity="0.08"/>
<circle cx="252" cy="85" r="6" fill="white"/>
<path d="M232 144.635C232 142.566 230.423 140.837 228.361 140.666C215.235 139.576 201.556 139 187.5 139C173.803 139 160.465 139.547 147.647 140.583C145.582 140.75 144 142.481 144 144.553V160.599C144 162.956 146.026 164.8 148.375 164.604C160.856 163.561 173.953 163 187.5 163C201.406 163 214.838 163.591 227.616 164.688C229.968 164.89 232 163.044 232 160.684V144.635Z" fill="white"/>
<path fill-rule="evenodd" clip-rule="evenodd" d="M350.316 224.853C358.919 217.602 363 210.2 363 203C363 195.8 358.919 188.398 350.316 181.147C341.732 173.911 329.074 167.215 313.082 161.513C281.133 150.122 236.734 143 187.5 143C138.266 143 93.8665 150.122 61.9177 161.513C45.9258 167.215 33.2677 173.911 24.6841 181.147C16.0814 188.398 12 195.8 12 203C12 210.2 16.0814 217.602 24.6841 224.853C33.2677 232.089 45.9258 238.785 61.9177 244.487C93.8665 255.878 138.266 263 187.5 263C236.734 263 281.133 255.878 313.082 244.487C329.074 238.785 341.732 232.089 350.316 224.853ZM187.5 267C286.635 267 367 238.346 367 203C367 167.654 286.635 139 187.5 139C88.3649 139 8 167.654 8 203C8 238.346 88.3649 267 187.5 267Z" fill="#FF26A9"/>
<path fill-rule="evenodd" clip-rule="evenodd" d="M350.316 224.853C358.919 217.602 363 210.2 363 203C363 195.8 358.919 188.398 350.316 181.147C341.732 173.911 329.074 167.215 313.082 161.513C281.133 150.122 236.734 143 187.5 143C138.266 143 93.8665 150.122 61.9177 161.513C45.9258 167.215 33.2677 173.911 24.6841 181.147C16.0814 188.398 12 195.8 12 203C12 210.2 16.0814 217.602 24.6841 224.853C33.2677 232.089 45.9258 238.785 61.9177 244.487C93.8665 255.878 138.266 263 187.5 263C236.734 263 281.133 255.878 313.082 244.487C329.074 238.785 341.732 232.089 350.316 224.853ZM187.5 267C286.635 267 367 238.346 367 203C367 167.654 286.635 139 187.5 139C88.3649 139 8 167.654 8 203C8 238.346 88.3649 267 187.5 267Z" fill="black" fill-opacity="0.2"/>
<circle cx="124" cy="85" r="6" fill="white"/>
<circle cx="135" cy="88" r="3" fill="white"/>
<circle cx="263" cy="88" r="3" fill="white"/>
</svg>
