<svg width="current" height="current" viewBox="0 0 375 622" fill="none" xmlns="http://www.w3.org/2000/svg">
<rect width="375" height="622" fill="#E4F0F5"/>
<path d="M8 139.011H367V203.011C367 238.357 338.346 267.011 303 267.011H72C36.6538 267.011 8 238.357 8 203.011V139.011Z" fill="#FE668A"/>
<circle cx="187" cy="227" r="120" fill="#F9537B"/>
<circle cx="187" cy="227" r="76" fill="#EE3460"/>
<circle cx="187" cy="227" r="32" fill="#D9204C"/>
<ellipse cx="187" cy="267" rx="100" ry="40" fill="#FF3767"/>
<path d="M8 139.107L44.1072 103L80.2143 139.107L66.7346 152.587C54.2378 165.084 33.9765 165.084 21.4797 152.587L8 139.107Z" fill="#E4F0F5"/>
<path d="M79.6965 139.107L115.804 103L151.911 139.107L138.431 152.587C125.934 165.084 105.673 165.084 93.1762 152.587L79.6965 139.107Z" fill="#E4F0F5"/>
<path d="M151.393 139.107L187.5 103L223.607 139.107L210.127 152.587C197.63 165.084 177.369 165.084 164.872 152.587L151.393 139.107Z" fill="#E4F0F5"/>
<path d="M223.089 139.107L259.196 103L295.304 139.107L281.824 152.587C269.327 165.084 249.066 165.084 236.569 152.587L223.089 139.107Z" fill="#E4F0F5"/>
<path d="M294.786 139.107L330.893 103L367 139.107L353.52 152.587C341.023 165.084 320.762 165.084 308.265 152.587L294.786 139.107Z" fill="#E4F0F5"/>
<rect y="267" width="375" height="88" fill="#E4F0F5"/>
<rect y="3" width="375" height="136" fill="#E4F0F5"/>
<ellipse cx="136" cy="99" rx="12" ry="16" fill="black"/>
<ellipse cx="140" cy="99" rx="8" ry="12" fill="#212121"/>
<circle cx="145" cy="99" r="3" fill="white"/>
<ellipse cx="240" cy="99" rx="12" ry="24" fill="black"/>
<ellipse cx="244" cy="99" rx="8" ry="20" fill="#212121"/>
<circle cx="249" cy="99" r="3" fill="white"/>
</svg>
