<svg width="current" height="current" viewBox="0 0 375 622" fill="none" xmlns="http://www.w3.org/2000/svg">
<rect width="375" height="622" fill="#15B28D"/>
<rect x="8" y="75" width="359" height="72" fill="#131313"/>
<path d="M304 91C304 101.609 299.786 111.783 292.284 119.284C284.783 126.786 274.609 131 264 131C253.391 131 243.217 126.786 235.716 119.284C228.214 111.783 224 101.609 224 91L304 91Z" fill="white"/>
<path d="M152 91C152 101.609 147.786 111.783 140.284 119.284C132.783 126.786 122.609 131 112 131C101.391 131 91.2172 126.786 83.7157 119.284C76.2143 111.783 72 101.609 72 91L152 91Z" fill="white"/>
<circle cx="96" cy="99" r="16" fill="black"/>
<circle cx="106" cy="108" r="3" fill="white"/>
<circle cx="248" cy="99" r="16" fill="black"/>
<circle cx="258" cy="108" r="3" fill="white"/>
<path d="M212 83C212 78.5817 215.582 75 220 75H308C312.418 75 316 78.5817 316 83C316 87.4183 312.418 91 308 91H220C215.582 91 212 87.4183 212 83Z" fill="#131313"/>
<path d="M60 83C60 78.5817 63.5817 75 68 75H156C160.418 75 164 78.5817 164 83C164 87.4183 160.418 91 156 91H68C63.5817 91 60 87.4183 60 83Z" fill="#131313"/>
<path d="M335 139C352.673 139 367.432 153.715 361.526 170.372C353.657 192.566 337.509 213.049 314.426 229.51C280.763 253.514 235.106 267 187.5 267C139.894 267 94.2371 253.514 60.5743 229.51C37.4907 213.049 21.3434 192.566 13.4742 170.372C7.56833 153.715 22.3269 139 40 139L335 139Z" fill="#5E0808"/>
<circle cx="188" cy="227" r="32" fill="#430808"/>
<ellipse cx="188" cy="267" rx="100" ry="40" fill="#E23A63"/>
<path d="M188 261L101 242.5L58 293.5L194 330.5L320.5 286L285 239L188 261Z" fill="#15B28D"/>
<path fill-rule="evenodd" clip-rule="evenodd" d="M305.136 216.483C326.026 201.586 339.854 183.615 346.446 165.025C347.245 162.771 346.853 160.975 345.188 159.115C343.224 156.924 339.537 155 335 155L40 155C35.4633 155 31.7758 156.924 29.8125 159.115C28.1468 160.975 27.7552 162.771 28.5544 165.025C35.1456 183.615 48.974 201.586 69.8639 216.483C100.419 238.271 142.702 251 187.5 251C232.298 251 274.581 238.271 305.136 216.483ZM361.526 170.372C367.432 153.715 352.673 139 335 139L40 139C22.3269 139 7.56833 153.715 13.4742 170.372C21.3434 192.566 37.4907 213.049 60.5743 229.51C94.2371 253.514 139.894 267 187.5 267C235.106 267 280.763 253.514 314.426 229.51C337.509 213.049 353.657 192.566 361.526 170.372Z" fill="#FA5252"/>
<ellipse cx="187.5" cy="75" rx="179.5" ry="8" fill="#131313"/>
</svg>
