<svg width="current" height="current" viewBox="0 0 375 622" fill="none" xmlns="http://www.w3.org/2000/svg">
<rect width="375" height="622" fill="#795548"/>
<path d="M208 139C208 145.627 163.228 151 108 151C52.7715 151 8 145.627 8 139C8 132.373 52.7715 127 108 127C163.228 127 208 132.373 208 139Z" fill="#F0AD95"/>
<path d="M367 139C367 145.627 322.228 151 267 151C211.772 151 167 145.627 167 139C167 132.373 211.772 127 267 127C322.228 127 367 132.373 367 139Z" fill="#F0AD95"/>
<path d="M8 139H367V235C367 252.673 352.673 267 335 267H40C22.3269 267 8 252.673 8 235V139Z" fill="#FF6174"/>
<circle cx="188" cy="227" r="32" fill="#971E2C"/>
<ellipse cx="188" cy="267" rx="100" ry="40" fill="#F24559"/>
<path fill-rule="evenodd" clip-rule="evenodd" d="M359 147H16V235C16 248.255 26.7452 259 40 259H335C348.255 259 359 248.255 359 235V147ZM8 139V235C8 252.673 22.3269 267 40 267H335C352.673 267 367 252.673 367 235V139H8Z" fill="#F0AD95"/>
<path d="M8 139H367V171H8V139Z" fill="#F0AD95"/>
<rect y="267" width="375" height="58" fill="#795548"/>
<path d="M112 139C112 145.627 108.418 151 104 151C99.5817 151 96 145.627 96 139C96 132.373 99.5817 127 104 127C108.418 127 112 132.373 112 139Z" fill="#512B1D"/>
<path fill-rule="evenodd" clip-rule="evenodd" d="M116.313 151.923C113.912 155.525 109.716 159 104 159C98.2838 159 94.088 155.525 91.6867 151.923C89.2482 148.265 88 143.673 88 139C88 134.327 89.2482 129.735 91.6867 126.077C94.088 122.475 98.2838 119 104 119C109.716 119 113.912 122.475 116.313 126.077C118.752 129.735 120 134.327 120 139C120 143.673 118.752 148.265 116.313 151.923ZM104 151C108.418 151 112 145.627 112 139C112 132.373 108.418 127 104 127C99.5817 127 96 132.373 96 139C96 145.627 99.5817 151 104 151Z" fill="#F0AD95"/>
<path d="M280 139C280 145.627 276.418 151 272 151C267.582 151 264 145.627 264 139C264 132.373 267.582 127 272 127C276.418 127 280 132.373 280 139Z" fill="#512B1D"/>
<path fill-rule="evenodd" clip-rule="evenodd" d="M284.313 151.923C281.912 155.525 277.716 159 272 159C266.284 159 262.088 155.525 259.687 151.923C257.248 148.265 256 143.673 256 139C256 134.327 257.248 129.735 259.687 126.077C262.088 122.475 266.284 119 272 119C277.716 119 281.912 122.475 284.313 126.077C286.752 129.735 288 134.327 288 139C288 143.673 286.752 148.265 284.313 151.923ZM272 151C276.418 151 280 145.627 280 139C280 132.373 276.418 127 272 127C267.582 127 264 132.373 264 139C264 145.627 267.582 151 272 151Z" fill="#F0AD95"/>
<circle cx="122" cy="96" r="10" fill="black"/>
<circle cx="254" cy="96" r="10" fill="black"/>
<circle cx="130" cy="96" r="2" fill="white"/>
<circle cx="262" cy="96" r="2" fill="white"/>
<path d="M228 90C228 87.7909 229.791 86 232 86H304C306.209 86 308 87.7909 308 90C308 92.2091 306.209 94 304 94H232C229.791 94 228 92.2091 228 90Z" fill="black"/>
<path d="M68 90C68 87.7909 69.7909 86 72 86H144C146.209 86 148 87.7909 148 90C148 92.2091 146.209 94 144 94H72C69.7909 94 68 92.2091 68 90Z" fill="black"/>
<path d="M208 171C208 177.627 163.228 183 108 183C52.7715 183 8 177.627 8 171C8 164.373 52.7715 159 108 159C163.228 159 208 164.373 208 171Z" fill="#F0AD95"/>
<path d="M367 171C367 177.627 322.228 183 267 183C211.772 183 167 177.627 167 171C167 164.373 211.772 159 267 159C322.228 159 367 164.373 367 171Z" fill="#F0AD95"/>
</svg>
