<svg width="169" height="48" viewBox="0 0 169 48" fill="none" xmlns="http://www.w3.org/2000/svg">
<path d="M18.5391 24.1562C17.7161 24.1562 16.9792 24.0156 16.3281 23.7344C15.6771 23.4531 15.1667 23.0573 14.7969 22.5469C14.4323 22.0365 14.2422 21.4583 14.2266 20.8125H16.5938C16.6094 21.0781 16.7031 21.3177 16.875 21.5312C17.0469 21.7448 17.2786 21.9115 17.5703 22.0312C17.862 22.151 18.1849 22.2109 18.5391 22.2109C18.9089 22.2109 19.2422 22.1458 19.5391 22.0156C19.8411 21.8802 20.0729 21.6979 20.2344 21.4688C20.3958 21.2344 20.474 20.9688 20.4688 20.6719C20.474 20.3646 20.3906 20.0911 20.2188 19.8516C20.0469 19.612 19.7969 19.4271 19.4688 19.2969C19.1458 19.1615 18.7656 19.0938 18.3281 19.0938H17.2734V17.3594H18.3281C18.6979 17.3594 19.0286 17.2969 19.3203 17.1719C19.612 17.0417 19.8359 16.862 19.9922 16.6328C20.1484 16.4036 20.224 16.1432 20.2188 15.8516C20.224 15.5651 20.1589 15.3125 20.0234 15.0938C19.888 14.8698 19.6927 14.6979 19.4375 14.5781C19.1823 14.4583 18.8906 14.3984 18.5625 14.3984C18.2292 14.3984 17.9245 14.4583 17.6484 14.5781C17.3724 14.6927 17.1484 14.8594 16.9766 15.0781C16.8099 15.2917 16.7188 15.5417 16.7031 15.8281H14.4531C14.474 15.1875 14.6641 14.6172 15.0234 14.1172C15.3828 13.6172 15.8698 13.2292 16.4844 12.9531C17.1042 12.6719 17.7969 12.5312 18.5625 12.5312C19.3385 12.5312 20.0234 12.6693 20.6172 12.9453C21.2109 13.2214 21.6719 13.6016 22 14.0859C22.3281 14.5703 22.487 15.112 22.4766 15.7109C22.487 16.1224 22.401 16.4974 22.2188 16.8359C22.0417 17.1745 21.7891 17.4531 21.4609 17.6719C21.138 17.8854 20.763 18.0312 20.3359 18.1094V18.1953C20.888 18.263 21.3568 18.4167 21.7422 18.6562C22.1328 18.8906 22.4271 19.1927 22.625 19.5625C22.8229 19.9323 22.9167 20.3542 22.9062 20.8281C22.9167 21.4583 22.7344 22.0286 22.3594 22.5391C21.9844 23.0443 21.4635 23.4401 20.7969 23.7266C20.1302 24.013 19.3776 24.1562 18.5391 24.1562ZM37.1172 23.8281H24.1172V22.1953H37.1172V23.8281ZM31.5859 23.0391H29.6094V19.4062H31.5859V23.0391ZM31.3359 14.5C31.3359 15.4062 31.099 16.2396 30.625 17C30.151 17.7552 29.4583 18.3854 28.5469 18.8906C27.6406 19.3958 26.5547 19.7344 25.2891 19.9062L24.5469 18.3438C25.6458 18.2083 26.5729 17.9453 27.3281 17.5547C28.0885 17.1589 28.6536 16.6953 29.0234 16.1641C29.3984 15.6276 29.5859 15.0729 29.5859 14.5V14.1797H31.3359V14.5ZM31.625 14.5C31.625 15.0729 31.8125 15.6276 32.1875 16.1641C32.5625 16.6953 33.1276 17.1589 33.8828 17.5547C34.638 17.9453 35.5625 18.2083 36.6562 18.3438L35.9297 19.9062C34.6641 19.7344 33.5755 19.3958 32.6641 18.8906C31.7526 18.3854 31.0547 17.7552 30.5703 17C30.0859 16.2396 29.8438 15.4062 29.8438 14.5V14.1797H31.625V14.5ZM35.9922 14.7656H25.2344V13.1719H35.9922V14.7656ZM31.5859 13.8438H29.6094V11.3984H31.5859V13.8438ZM45.1875 19.2266H38.3594V12.3906H45.1875V19.2266ZM40.3359 17.6562H43.2266V13.9844H40.3359V17.6562ZM49.2188 21.6016H47.2266V11.2266H49.2188V21.6016ZM51.1406 16.9609H48.6406V15.3203H51.1406V16.9609ZM49.7266 25.1953H39.9922V23.5859H49.7266V25.1953ZM41.9844 24.3828H39.9922V20.5703H41.9844V24.3828ZM59.8828 18.0703H57.5078V16.4766H59.8828V18.0703ZM64.0938 25.4375H62.1797V11.2031H64.0938V25.4375ZM61.1328 24.7812H59.25V11.4219H61.1328V24.7812ZM54.9844 12.2266C55.6146 12.2266 56.1667 12.4349 56.6406 12.8516C57.1146 13.263 57.4792 13.8568 57.7344 14.6328C57.9948 15.4089 58.125 16.3229 58.125 17.375C58.125 18.4219 57.9948 19.3359 57.7344 20.1172C57.4792 20.8932 57.1146 21.4922 56.6406 21.9141C56.1667 22.3307 55.6146 22.5417 54.9844 22.5469C54.3594 22.5417 53.8125 22.3307 53.3438 21.9141C52.875 21.4922 52.513 20.8932 52.2578 20.1172C52.0078 19.3359 51.8828 18.4219 51.8828 17.375C51.8828 16.3177 52.0078 15.4036 52.2578 14.6328C52.513 13.8568 52.875 13.263 53.3438 12.8516C53.8177 12.4349 54.3646 12.2266 54.9844 12.2266ZM54.9844 14.1172C54.7135 14.112 54.4844 14.2318 54.2969 14.4766C54.1094 14.7214 53.9661 15.0859 53.8672 15.5703C53.7734 16.0547 53.7266 16.6562 53.7266 17.375C53.7266 18.0885 53.7734 18.6901 53.8672 19.1797C53.9661 19.6693 54.1094 20.0339 54.2969 20.2734C54.4896 20.513 54.7188 20.6328 54.9844 20.6328C55.2604 20.6328 55.4948 20.513 55.6875 20.2734C55.8802 20.0339 56.0286 19.6693 56.1328 19.1797C56.237 18.6901 56.2891 18.0885 56.2891 17.375C56.2891 16.6562 56.237 16.0547 56.1328 15.5703C56.0286 15.0859 55.8802 14.7214 55.6875 14.4766C55.4948 14.2318 55.2604 14.112 54.9844 14.1172ZM81.0938 25.4375H79.1172V11.2031H81.0938V25.4375ZM82.5312 18.1328H80V16.4766H82.5312V18.1328ZM71.0469 15.8047H71.9453V12.4922H73.5781V22.1484H69.3984V12.4922H71.0469V15.8047ZM71.9453 20.5234V17.375H71.0469V20.5234H71.9453ZM75.7656 15.8047H76.6797V12.4922H78.3203V22.1484H74.1484V12.4922H75.7656V15.8047ZM76.6797 20.5234V17.375H75.7656V20.5234H76.6797ZM96.1172 20.5H83.1172V18.8984H96.1172V20.5ZM94.8516 25.1953H84.75V23.5859H94.8516V25.1953ZM86.75 24.2734H84.75V21.2969H86.75V24.2734ZM94.5469 15.4766H86.7188V16.9688H84.7344V14.0469H92.5469V13.0859H84.7109V11.5391H94.5469V15.4766ZM94.8125 17.9922H84.7344V16.4922H94.8125V17.9922ZM106.32 22.1719H104.336V19.8516H106.32V22.1719ZM112.602 25.4375H110.625V11.2031H112.602V25.4375ZM101.227 21.4219C103.055 21.4115 104.635 21.3828 105.969 21.3359C107.302 21.2839 108.594 21.1745 109.844 21.0078L109.969 22.4844C108.604 22.724 107.195 22.8802 105.742 22.9531C104.294 23.0208 102.708 23.0547 100.984 23.0547L100.719 21.4219H101.227ZM109.641 14.3672H101V12.8047H109.641V14.3672ZM105.312 14.9297C106.01 14.9297 106.63 15.0417 107.172 15.2656C107.714 15.4896 108.135 15.8047 108.438 16.2109C108.74 16.612 108.891 17.0755 108.891 17.6016C108.891 18.1224 108.74 18.5833 108.438 18.9844C108.135 19.3854 107.714 19.7005 107.172 19.9297C106.63 20.1536 106.01 20.2656 105.312 20.2656C104.63 20.2656 104.018 20.1536 103.477 19.9297C102.94 19.7057 102.521 19.3932 102.219 18.9922C101.922 18.5859 101.773 18.1224 101.773 17.6016C101.773 17.0755 101.922 16.612 102.219 16.2109C102.521 15.8047 102.94 15.4896 103.477 15.2656C104.018 15.0417 104.63 14.9297 105.312 14.9297ZM105.312 16.4375C104.995 16.4375 104.711 16.4844 104.461 16.5781C104.211 16.6667 104.016 16.7995 103.875 16.9766C103.734 17.1484 103.664 17.3568 103.664 17.6016C103.664 17.8411 103.734 18.0469 103.875 18.2188C104.016 18.3906 104.211 18.5234 104.461 18.6172C104.711 18.7057 104.995 18.75 105.312 18.75C105.646 18.75 105.94 18.7057 106.195 18.6172C106.451 18.5286 106.646 18.3984 106.781 18.2266C106.917 18.0495 106.984 17.8411 106.984 17.6016C106.984 17.3568 106.917 17.1484 106.781 16.9766C106.646 16.7995 106.451 16.6667 106.195 16.5781C105.94 16.4844 105.646 16.4375 105.312 16.4375ZM106.336 13.6953H104.336V11.2734H106.336V13.6953ZM120.242 21.6328H118.234V18.4922H120.242V21.6328ZM126.531 21.9766H124.531V11.2344H126.531V21.9766ZM126.844 25.1953H116.234V23.5859H126.844V25.1953ZM118.242 24.0156H116.234V20.9453H118.242V24.0156ZM114.609 17.5391C116.479 17.5234 118.117 17.4896 119.523 17.4375C120.93 17.3802 122.279 17.2682 123.57 17.1016L123.672 18.5312C122.292 18.7656 120.846 18.9219 119.336 19C117.831 19.0781 116.273 19.1146 114.664 19.1094L114.43 17.5391H114.609ZM124.984 20.8438H121.812V19.4844H124.984V20.8438ZM119.055 11.7109C119.737 11.7057 120.346 11.8125 120.883 12.0312C121.424 12.2448 121.846 12.5469 122.148 12.9375C122.456 13.3229 122.609 13.763 122.609 14.2578C122.609 14.763 122.456 15.2031 122.148 15.5781C121.846 15.9531 121.427 16.2474 120.891 16.4609C120.354 16.6693 119.742 16.7734 119.055 16.7734C118.362 16.7734 117.745 16.6693 117.203 16.4609C116.661 16.2474 116.24 15.9531 115.938 15.5781C115.635 15.2031 115.484 14.763 115.484 14.2578C115.484 13.763 115.635 13.3203 115.938 12.9297C116.24 12.5391 116.661 12.237 117.203 12.0234C117.745 11.8099 118.362 11.7057 119.055 11.7109ZM119.055 13.1719C118.721 13.1667 118.427 13.2083 118.172 13.2969C117.917 13.3802 117.719 13.5052 117.578 13.6719C117.443 13.8385 117.375 14.0339 117.375 14.2578C117.375 14.4818 117.443 14.6771 117.578 14.8438C117.719 15.0052 117.917 15.1276 118.172 15.2109C118.427 15.2943 118.721 15.3359 119.055 15.3359C119.383 15.3359 119.669 15.2943 119.914 15.2109C120.164 15.1276 120.359 15.0052 120.5 14.8438C120.641 14.6771 120.711 14.4818 120.711 14.2578C120.711 14.0339 120.641 13.8385 120.5 13.6719C120.359 13.5052 120.164 13.3802 119.914 13.2969C119.669 13.2083 119.383 13.1667 119.055 13.1719ZM139.531 25.4141H137.531V11.2031H139.531V25.4141ZM141.539 18.3125H139.016V16.6719H141.539V18.3125ZM135.734 12.6719C135.734 14.1562 135.523 15.526 135.102 16.7812C134.68 18.0312 133.992 19.1823 133.039 20.2344C132.086 21.2812 130.836 22.1875 129.289 22.9531L128.164 21.4297C129.44 20.7839 130.49 20.0547 131.312 19.2422C132.141 18.4297 132.758 17.513 133.164 16.4922C133.576 15.4714 133.781 14.3177 133.781 13.0312V12.6719H135.734ZM134.781 14.3047H128.961V12.6719H134.781V14.3047ZM154.039 18.8672H152.047V11.2031H154.039V18.8672ZM146.5 20.8047H152.055V19.4844H154.039V25.2812H144.539V19.4844H146.5V20.8047ZM152.055 23.6719V22.3516H146.5V23.6719H152.055ZM146.25 11.8047C146.984 11.7995 147.646 11.9401 148.234 12.2266C148.828 12.5078 149.294 12.9062 149.633 13.4219C149.971 13.9375 150.141 14.5234 150.141 15.1797C150.141 15.8099 149.971 16.3802 149.633 16.8906C149.294 17.3958 148.828 17.7917 148.234 18.0781C147.646 18.3646 146.984 18.5104 146.25 18.5156C145.516 18.5104 144.852 18.3646 144.258 18.0781C143.669 17.7917 143.206 17.3958 142.867 16.8906C142.529 16.3802 142.359 15.8099 142.359 15.1797C142.359 14.5234 142.529 13.9375 142.867 13.4219C143.206 12.9062 143.669 12.5078 144.258 12.2266C144.852 11.9401 145.516 11.7995 146.25 11.8047ZM146.25 13.4688C145.87 13.4635 145.531 13.5312 145.234 13.6719C144.943 13.8125 144.714 14.0104 144.547 14.2656C144.385 14.5208 144.305 14.8255 144.305 15.1797C144.305 15.5234 144.385 15.8229 144.547 16.0781C144.714 16.3333 144.943 16.5312 145.234 16.6719C145.531 16.8073 145.87 16.8776 146.25 16.8828C146.625 16.8776 146.956 16.8073 147.242 16.6719C147.534 16.5312 147.76 16.3333 147.922 16.0781C148.083 15.8229 148.164 15.5234 148.164 15.1797C148.164 14.8255 148.081 14.5208 147.914 14.2656C147.753 14.0104 147.529 13.8125 147.242 13.6719C146.956 13.5312 146.625 13.4635 146.25 13.4688Z" fill="#651FFF"/>
<path d="M150.5 1H18.5C8.83502 1 1 8.83502 1 18.5C1 28.165 8.83502 36 18.5 36H76.4227C76.7799 36 77.11 36.1906 77.2887 36.5L83.0622 46.5C83.4471 47.1667 84.4093 47.1667 84.7942 46.5L90.5677 36.5C90.7464 36.1906 91.0765 36 91.4338 36H150.5C160.165 36 168 28.165 168 18.5C168 8.83502 160.165 1 150.5 1Z" stroke="#651FFF" stroke-width="2"/>
</svg>
