<svg width="24" height="24" viewBox="0 0 24 24" fill="none" xmlns="http://www.w3.org/2000/svg">
<path d="M9.45002 15.6999L18.525 6.6249C18.6761 6.4749 18.8556 6.3999 19.0633 6.3999C19.2711 6.3999 19.45 6.47534 19.6 6.62623C19.75 6.77709 19.825 6.95626 19.825 7.16373C19.825 7.37118 19.75 7.5499 19.6 7.6999L9.97502 17.3249C9.82502 17.4749 9.65002 17.5499 9.45002 17.5499C9.25002 17.5499 9.07502 17.4749 8.92502 17.3249L4.37502 12.7749C4.22502 12.6238 4.15419 12.4443 4.16252 12.2366C4.17086 12.0288 4.25046 11.8499 4.40135 11.6999C4.55221 11.5499 4.73138 11.4749 4.93885 11.4749C5.1463 11.4749 5.32502 11.5499 5.47502 11.6999L9.45002 15.6999Z" fill="#651FFF"/>
</svg>
