<svg width="32" height="32" viewBox="0 0 32 32" fill="none" xmlns="http://www.w3.org/2000/svg">
<path d="M2.46667 15.9667L8.36667 21.8667C8.56667 22.0667 8.66111 22.3 8.65 22.5667C8.63889 22.8334 8.53333 23.0667 8.33333 23.2667C8.13333 23.4667 7.89444 23.5667 7.61667 23.5667C7.33889 23.5667 7.1 23.4667 6.9 23.2667L0.3 16.6667C0.188889 16.5556 0.111111 16.4445 0.0666667 16.3334C0.0222222 16.2223 0 16.1 0 15.9667C0 15.8334 0.0222222 15.7112 0.0666667 15.6C0.111111 15.4889 0.188889 15.3778 0.3 15.2667L6.93333 8.63337C7.13333 8.43337 7.37222 8.33337 7.65 8.33337C7.92778 8.33337 8.16667 8.43337 8.36667 8.63337C8.56667 8.83337 8.66667 9.07226 8.66667 9.35004C8.66667 9.62782 8.56667 9.86671 8.36667 10.0667L2.46667 15.9667Z" fill="black" fill-opacity="0.6"/>
</svg>
