<svg width="24" height="24" viewBox="0 0 24 24" fill="none" xmlns="http://www.w3.org/2000/svg">
<path d="M13.25 11.9749L8.82497 7.5499C8.67497 7.3999 8.60414 7.2249 8.61247 7.0249C8.62081 6.8249 8.69997 6.6499 8.84997 6.4999C8.99997 6.3499 9.17914 6.2749 9.38747 6.2749C9.59581 6.2749 9.77497 6.3499 9.92497 6.4999L14.875 11.4499C14.9583 11.5332 15.0166 11.6166 15.05 11.6999C15.0833 11.7832 15.1 11.8749 15.1 11.9749C15.1 12.0749 15.0833 12.1666 15.05 12.2499C15.0166 12.3332 14.9583 12.4166 14.875 12.4999L9.89997 17.4749C9.74997 17.6249 9.57497 17.6957 9.37497 17.6874C9.17497 17.6791 8.99997 17.5999 8.84997 17.4499C8.69997 17.2999 8.62497 17.1207 8.62497 16.9124C8.62497 16.7041 8.69997 16.5249 8.84997 16.3749L13.25 11.9749Z" fill="black" fill-opacity="0.6"/>
</svg>
