<svg width="current" height="current" viewBox="0 0 32 32" fill="none" xmlns="http://www.w3.org/2000/svg">
<path d="M15.7 17.1L8.7 24.1C8.5 24.3 8.26667 24.4 8 24.4C7.73333 24.4 7.5 24.3 7.3 24.1C7.1 23.9 7 23.6667 7 23.4C7 23.1333 7.1 22.9 7.3 22.7L14.3 15.7L7.3 8.7C7.1 8.5 7 8.26667 7 8C7 7.73333 7.1 7.5 7.3 7.3C7.5 7.1 7.73333 7 8 7C8.26667 7 8.5 7.1 8.7 7.3L15.7 14.3L22.7 7.3C22.9 7.1 23.1333 7 23.4 7C23.6667 7 23.9 7.1 24.1 7.3C24.3 7.5 24.4 7.73333 24.4 8C24.4 8.26667 24.3 8.5 24.1 8.7L17.1 15.7L24.1 22.7C24.3 22.9 24.4 23.1333 24.4 23.4C24.4 23.6667 24.3 23.9 24.1 24.1C23.9 24.3 23.6667 24.4 23.4 24.4C23.1333 24.4 22.9 24.3 22.7 24.1L15.7 17.1Z" fill="black"/>
</svg>
