<svg width="32" height="32" viewBox="0 0 32 32" fill="none" xmlns="http://www.w3.org/2000/svg">
<path d="M5.33301 26V13C5.33301 12.6833 5.40384 12.3833 5.54551 12.1C5.68717 11.8167 5.88301 11.5833 6.13301 11.4L14.7997 4.9C15.1481 4.63333 15.5463 4.5 15.9943 4.5C16.4423 4.5 16.8441 4.63333 17.1997 4.9L25.8663 11.4C26.1163 11.5833 26.3122 11.8167 26.4538 12.1C26.5955 12.3833 26.6663 12.6833 26.6663 13V26C26.6663 26.55 26.4705 27.0208 26.0788 27.4125C25.6872 27.8042 25.2163 28 24.6663 28H19.6663C19.383 28 19.1455 27.9042 18.9538 27.7125C18.7622 27.5208 18.6663 27.2833 18.6663 27V19.6667C18.6663 19.3833 18.5705 19.1458 18.3788 18.9542C18.1872 18.7625 17.9497 18.6667 17.6663 18.6667H14.333C14.0497 18.6667 13.8122 18.7625 13.6205 18.9542C13.4288 19.1458 13.333 19.3833 13.333 19.6667V27C13.333 27.2833 13.2372 27.5208 13.0455 27.7125C12.8538 27.9042 12.6163 28 12.333 28H7.33301C6.78301 28 6.31217 27.8042 5.92051 27.4125C5.52884 27.0208 5.33301 26.55 5.33301 26Z" fill="black" fill-opacity="0.6"/>
</svg>
