<svg width="current" height="current" viewBox="0 0 327 69" fill="none" xmlns="http://www.w3.org/2000/svg">
<g clip-path="url(#clip0_119_4639)">
<path d="M44.1833 13.3866L60.6355 13.0928V43.9406H44.1833V13.3866ZM0.702515 30.6614V0.638672L15.6858 18.0284H26.4385L39.7765 0.638672C41.8918 5.92687 42.3031 25.9607 40.7166 32.7766H41.7742V43.6468H17.9186C4.40427 43.6468 0.702515 40.4152 0.702515 30.6614ZM4.52179 51.8729V45.4096H60.6355V58.8651H20.974V60.5691H61.5169V67.62H4.81558V53.5769H44.4771V51.8729H4.52179ZM15.6858 28.8399C15.6858 32.1891 16.8022 32.7766 20.7977 32.7766H26.3797C26.6735 31.0139 26.8498 29.3687 26.9085 27.7235H15.6858V28.8399Z" fill="#651FFF"/>
<path d="M70.9252 51.8142H87.6711V56.1622H127.92V67.62H70.9252V51.8142ZM65.637 36.3609V27.0184H90.9028C91.0791 26.4896 91.1379 26.0195 91.1379 25.5494C91.1379 24.4918 90.1977 23.963 88.2 23.963C82.9705 23.963 73.4517 24.2568 67.3997 24.6093L66.8121 14.9143C74.0981 14.3854 80.7965 14.0329 88.6113 14.0329C102.008 14.0329 106.121 15.8544 106.121 21.7889C106.121 23.3754 105.827 25.0794 105.24 27.0184H106.709V36.3609H81.8541C81.7954 36.6547 81.7954 36.8897 81.7954 37.1835C81.7954 39.1225 82.4417 39.5338 85.2621 39.5338C90.6678 39.5338 100.01 39.1225 107.296 38.5937L107.884 48.6413C101.127 49.4051 90.8441 50.0514 84.9095 50.0514C72.0416 50.0514 66.8121 47.6424 66.8121 41.7078C66.8121 40.0039 67.0471 38.1236 67.5172 36.3609H65.637ZM107.943 38.0061V23.3166H111.174V13.0928H126.745V54.1057H111.174V38.0061H107.943Z" fill="#651FFF"/>
<path d="M130.277 52.9306H153.78V49.1113H152.605C138.973 49.1113 133.098 44.4694 133.098 33.7755C133.098 28.7224 134.038 19.9674 135.154 14.5617L153.252 15.1493C152.546 19.8499 152.018 25.2556 152.018 29.0749C152.018 34.0106 152.958 34.8919 159.127 34.8919C170.703 34.8919 176.696 34.5981 190.915 33.5993L191.503 47.3486C184.981 47.9949 177.989 48.465 170.82 48.7588V52.9306H194.323V66.1511H130.277V52.9306Z" fill="#651FFF"/>
<path d="M245.92 13.0928H258.964V67.62H245.92V44.7632H243.511V67.3262H230.584V13.0928H243.511V31.8365H245.92V13.0928ZM196.387 44.8808V33.423H212.957C213.368 31.484 213.662 29.545 213.662 28.2523C213.662 26.4308 213.25 26.0195 211.429 26.0195C208.491 26.0195 205.259 26.2545 198.15 26.9009L197.562 15.3843C203.849 14.503 208.902 14.0917 214.132 14.0917C224.532 14.0917 227.528 16.5007 227.528 24.8443C227.528 27.3122 227.293 29.9563 226.706 33.423H228.116V44.8808H212.075C211.781 47.2898 211.664 48.8763 211.664 50.1102C211.664 52.343 212.193 52.8718 214.367 52.8718C217.07 52.8718 219.361 52.6955 228.762 51.8142L229.35 63.507C223.122 64.7996 217.011 65.446 211.194 65.446C201.087 65.446 197.268 62.3318 197.268 54.1057C197.268 51.6379 197.621 48.4062 198.208 44.8808H196.387Z" fill="#651FFF"/>
<path d="M306.564 13.0928H322.137V24.3155H326.25V38.1824H322.137V47.5249H306.564V13.0928ZM263.084 32.5416V13.5628H278.067V19.1448H288.878C288.643 17.5584 288.408 15.9131 288.056 14.1504L302.158 13.5628C304.332 19.3799 304.743 27.7235 302.98 35.127H304.155V46.526H280.3C266.785 46.526 263.084 43.0593 263.084 32.5416ZM266.022 58.2775C266.022 51.7554 274.541 48.2299 294.519 48.2299C314.497 48.2299 323.018 51.7554 323.018 58.2775C323.018 64.7409 314.497 68.2076 294.519 68.2076C274.541 68.2076 266.022 64.7409 266.022 58.2775ZM278.067 30.8964C278.067 34.4806 279.183 35.127 283.179 35.127H288.761C289.055 33.1292 289.231 31.1902 289.29 29.3099H278.067V30.8964ZM282.474 57.925C282.474 58.9826 286.528 59.2764 294.519 59.2764C302.51 59.2764 306.564 58.9826 306.564 57.925C306.564 56.9261 302.51 56.5736 294.519 56.5736C286.528 56.5736 282.474 56.9261 282.474 57.925Z" fill="#651FFF"/>
<path d="M30.0176 30.5209C30.0176 35.4591 26.0144 39.4623 21.0762 39.4623C16.138 39.4623 12.1348 35.4591 12.1348 30.5209C12.1348 25.5826 16.138 21.5794 21.0762 21.5794C26.0144 21.5794 30.0176 25.5826 30.0176 30.5209Z" fill="white"/>
<path d="M30.3369 30.5209C30.3369 33.3428 28.0494 35.6302 25.2275 35.6302C22.4057 35.6302 20.1182 33.3428 20.1182 30.5209C20.1182 27.699 22.4057 25.4115 25.2275 25.4115C28.0494 25.4115 30.3369 27.699 30.3369 30.5209Z" fill="#651FFF"/>
<path d="M22.3535 30.5209C22.3535 31.2263 21.7816 31.7982 21.0762 31.7982C20.3707 31.7982 19.7988 31.2263 19.7988 30.5209C19.7988 29.8154 20.3707 29.2435 21.0762 29.2435C21.7816 29.2435 22.3535 29.8154 22.3535 30.5209Z" fill="white"/>
</g>
<defs>
<clipPath id="clip0_119_4639">
<rect width="327" height="68.9766" fill="white"/>
</clipPath>
</defs>
</svg>
