<svg width="32" height="32" viewBox="0 0 32 32" fill="none" xmlns="http://www.w3.org/2000/svg">
<path d="M16 17.9C15.0444 17.9 14.2444 17.5564 13.6 16.8694C12.9556 16.1824 12.6333 15.3481 12.6333 14.3666V5.99996C12.6333 5.07403 12.9605 4.28699 13.6147 3.63886C14.2689 2.9907 15.0634 2.66663 15.998 2.66663C16.9327 2.66663 17.7278 2.9907 18.3833 3.63886C19.0389 4.28699 19.3667 5.07403 19.3667 5.99996V14.3666C19.3667 15.3481 19.0444 16.1824 18.4 16.8694C17.7556 17.5564 16.9556 17.9 16 17.9ZM15.9942 28C15.7092 28 15.4722 27.9041 15.2833 27.7125C15.0944 27.5208 15 27.2833 15 27V23.4666C12.8222 23.2222 10.9611 22.35 9.41667 20.85C7.87222 19.35 6.97778 17.5444 6.73333 15.4333C6.68889 15.1444 6.77222 14.8944 6.98333 14.6833C7.19445 14.4722 7.45556 14.3666 7.76667 14.3666C8 14.3666 8.20834 14.4555 8.39167 14.6333C8.575 14.8111 8.68889 15.0222 8.73334 15.2666C8.97778 17.0666 9.78691 18.5611 11.1607 19.75C12.5345 20.9388 14.1456 21.5333 15.9941 21.5333C17.8425 21.5333 19.4556 20.9388 20.8333 19.75C22.2111 18.5611 23.0222 17.0666 23.2667 15.2666C23.3164 15.0166 23.4365 14.8041 23.6271 14.6291C23.8177 14.4541 24.029 14.3666 24.261 14.3666C24.5759 14.3666 24.8333 14.4722 25.0333 14.6833C25.2333 14.8944 25.3111 15.1444 25.2667 15.4333C25.0222 17.5444 24.1278 19.35 22.5833 20.85C21.0389 22.35 19.1778 23.2222 17 23.4666V27C17 27.2833 16.9036 27.5208 16.7108 27.7125C16.518 27.9041 16.2791 28 15.9942 28ZM16 15.9C16.4 15.9 16.7278 15.75 16.9833 15.45C17.2389 15.15 17.3667 14.7888 17.3667 14.3666V5.99996C17.3667 5.62218 17.2357 5.30552 16.9737 5.04996C16.7118 4.7944 16.3872 4.66663 16 4.66663C15.6128 4.66663 15.2882 4.7944 15.0263 5.04996C14.7643 5.30552 14.6333 5.62218 14.6333 5.99996V14.3666C14.6333 14.7888 14.7611 15.15 15.0167 15.45C15.2722 15.75 15.6 15.9 16 15.9Z" fill="black" fill-opacity="0.6"/>
</svg>
