<svg width="32" height="32" viewBox="0 0 32 32" fill="none" xmlns="http://www.w3.org/2000/svg">
<path d="M7.40033 23.5C8.80033 22.5222 10.1892 21.7722 11.567 21.25C12.9448 20.7277 14.4225 20.4666 16.0003 20.4666C17.5781 20.4666 19.0614 20.7277 20.4503 21.25C21.8392 21.7722 23.2337 22.5222 24.6337 23.5C25.6114 22.3 26.3059 21.0888 26.717 19.8666C27.1281 18.6444 27.3337 17.3555 27.3337 16C27.3337 12.7777 26.2503 10.0833 24.0837 7.91663C21.917 5.74996 19.2225 4.66663 16.0003 4.66663C12.7781 4.66663 10.0837 5.74996 7.91699 7.91663C5.75033 10.0833 4.66699 12.7777 4.66699 16C4.66699 17.3555 4.8781 18.6444 5.30033 19.8666C5.72255 21.0888 6.42255 22.3 7.40033 23.5ZM15.9941 17C14.7094 17 13.6281 16.559 12.7503 15.6771C11.8725 14.7952 11.4337 13.7118 11.4337 12.4271C11.4337 11.1423 11.8746 10.0611 12.7565 9.18329C13.6384 8.30551 14.7218 7.86663 16.0065 7.86663C17.2913 7.86663 18.3725 8.30758 19.2503 9.18949C20.1281 10.0714 20.567 11.1547 20.567 12.4395C20.567 13.7242 20.126 14.8055 19.2441 15.6833C18.3622 16.5611 17.2789 17 15.9941 17ZM16.0159 29.3333C14.1833 29.3333 12.4559 28.9833 10.8337 28.2833C9.21144 27.5833 7.79477 26.6277 6.58366 25.4166C5.37255 24.2055 4.41699 22.7914 3.71699 21.1744C3.01699 19.5574 2.66699 17.8296 2.66699 15.9911C2.66699 14.1526 3.01699 12.4277 3.71699 10.8166C4.41699 9.20551 5.37255 7.7944 6.58366 6.58329C7.79477 5.37218 9.20884 4.41663 10.8259 3.71663C12.4429 3.01663 14.1707 2.66663 16.0092 2.66663C17.8477 2.66663 19.5725 3.01663 21.1837 3.71663C22.7948 4.41663 24.2059 5.37218 25.417 6.58329C26.6281 7.7944 27.5837 9.20587 28.2837 10.8177C28.9837 12.4295 29.3337 14.1517 29.3337 15.9844C29.3337 17.817 28.9837 19.5444 28.2837 21.1666C27.5837 22.7888 26.6281 24.2055 25.417 25.4166C24.2059 26.6277 22.7944 27.5833 21.1826 28.2833C19.5708 28.9833 17.8485 29.3333 16.0159 29.3333ZM16.0003 27.3333C17.2225 27.3333 18.417 27.1555 19.5837 26.8C20.7503 26.4444 21.9003 25.8222 23.0337 24.9333C21.9003 24.1333 20.7448 23.5222 19.567 23.1C18.3892 22.6777 17.2003 22.4666 16.0003 22.4666C14.8003 22.4666 13.6114 22.6777 12.4337 23.1C11.2559 23.5222 10.1003 24.1333 8.96699 24.9333C10.1003 25.8222 11.2503 26.4444 12.417 26.8C13.5837 27.1555 14.7781 27.3333 16.0003 27.3333ZM16.0003 15C16.7559 15 17.3725 14.7611 17.8503 14.2833C18.3281 13.8055 18.567 13.1888 18.567 12.4333C18.567 11.6777 18.3281 11.0611 17.8503 10.5833C17.3725 10.1055 16.7559 9.86663 16.0003 9.86663C15.2448 9.86663 14.6281 10.1055 14.1503 10.5833C13.6725 11.0611 13.4337 11.6777 13.4337 12.4333C13.4337 13.1888 13.6725 13.8055 14.1503 14.2833C14.6281 14.7611 15.2448 15 16.0003 15Z" fill="black" fill-opacity="0.6"/>
</svg>
