<svg width="32" height="32" viewBox="0 0 32 32" fill="none" xmlns="http://www.w3.org/2000/svg">
<path d="M6.33301 25.3333C6.04967 25.3333 5.81217 25.2369 5.62051 25.0441C5.42884 24.8513 5.33301 24.6124 5.33301 24.3275C5.33301 24.0425 5.42884 23.8055 5.62051 23.6166C5.81217 23.4277 6.04967 23.3333 6.33301 23.3333H7.99967V13.2C7.99967 11.3333 8.54967 9.66107 9.64967 8.18329C10.7497 6.70551 12.1997 5.77774 13.9997 5.39996V4.66663C13.9997 4.11107 14.1941 3.63885 14.583 3.24996C14.9719 2.86107 15.4441 2.66663 15.9997 2.66663C16.5552 2.66663 17.0275 2.86107 17.4163 3.24996C17.8052 3.63885 17.9997 4.11107 17.9997 4.66663V5.39996C19.7997 5.77774 21.2497 6.70551 22.3497 8.18329C23.4497 9.66107 23.9997 11.3333 23.9997 13.2V23.3333H25.6663C25.9497 23.3333 26.1872 23.4297 26.3788 23.6225C26.5705 23.8153 26.6663 24.0541 26.6663 24.3391C26.6663 24.6241 26.5705 24.8611 26.3788 25.05C26.1872 25.2388 25.9497 25.3333 25.6663 25.3333H6.33301ZM15.9997 29.3333C15.2663 29.3333 14.6386 29.0722 14.1163 28.55C13.5941 28.0277 13.333 27.4 13.333 26.6666H18.6663C18.6663 27.4 18.4052 28.0277 17.883 28.55C17.3608 29.0722 16.733 29.3333 15.9997 29.3333ZM9.99967 23.3333H21.9997V13.2C21.9997 11.5333 21.4163 10.1166 20.2497 8.94996C19.083 7.78329 17.6663 7.19996 15.9997 7.19996C14.333 7.19996 12.9163 7.78329 11.7497 8.94996C10.583 10.1166 9.99967 11.5333 9.99967 13.2V23.3333Z" fill="black"/>
</svg>
