<svg width="32" height="32" viewBox="0 0 32 32" fill="current" xmlns="http://www.w3.org/2000/svg">
<path d="M7.33331 26.6666C6.79998 26.6666 6.33331 26.4666 5.93331 26.0666C5.53331 25.6666 5.33331 25.1999 5.33331 24.6666V20.8999C5.33331 20.6166 5.4297 20.3791 5.62248 20.1874C5.81528 19.9958 6.05417 19.8999 6.33915 19.8999C6.62415 19.8999 6.86109 19.9958 7.04998 20.1874C7.23887 20.3791 7.33331 20.6166 7.33331 20.8999V24.6666H24.6666V20.8999C24.6666 20.6166 24.763 20.3791 24.9558 20.1874C25.1486 19.9958 25.3875 19.8999 25.6725 19.8999C25.9575 19.8999 26.1944 19.9958 26.3833 20.1874C26.5722 20.3791 26.6666 20.6166 26.6666 20.8999V24.6666C26.6666 25.1999 26.4666 25.6666 26.0666 26.0666C25.6666 26.4666 25.2 26.6666 24.6666 26.6666H7.33331ZM15 9.19994L11.7 12.4999C11.5044 12.6999 11.2722 12.7944 11.0033 12.7833C10.7344 12.7722 10.4956 12.6666 10.2869 12.4666C10.0956 12.2666 9.99998 12.0277 9.99998 11.7499C9.99998 11.4722 10.1 11.2333 10.3 11.0333L15.3 6.03328C15.4111 5.92217 15.5237 5.84439 15.6377 5.79994C15.7518 5.7555 15.8741 5.73328 16.0044 5.73328C16.1348 5.73328 16.2555 5.7555 16.3666 5.79994C16.4778 5.84439 16.5889 5.92217 16.7 6.03328L21.7333 11.0666C21.9333 11.2666 22.0333 11.4999 22.0333 11.7666C22.0333 12.0333 21.9377 12.2666 21.7463 12.4666C21.5377 12.6666 21.2944 12.7666 21.0166 12.7666C20.7389 12.7666 20.5 12.6666 20.3 12.4666L17 9.19994V20.5666C17 20.8499 16.9036 21.0874 16.7108 21.2791C16.518 21.4708 16.2791 21.5666 15.9941 21.5666C15.7091 21.5666 15.4722 21.4708 15.2833 21.2791C15.0944 21.0874 15 20.8499 15 20.5666V9.19994Z" fill="black" fill-opacity="0.6"/>
</svg>
