<svg width="24" height="24" viewBox="0 0 24 24" fill="none" xmlns="http://www.w3.org/2000/svg">
<path d="M5.5 20C5.1 20 4.75 19.85 4.45 19.55C4.15 19.25 4 18.9 4 18.5V15.675C4 15.4625 4.07229 15.2844 4.21688 15.1407C4.36148 14.9969 4.54064 14.925 4.75438 14.925C4.96813 14.925 5.14583 14.9969 5.2875 15.1407C5.42917 15.2844 5.5 15.4625 5.5 15.675V18.5H18.5V15.675C18.5 15.4625 18.5723 15.2844 18.7169 15.1407C18.8615 14.9969 19.0406 14.925 19.2544 14.925C19.4681 14.925 19.6458 14.9969 19.7875 15.1407C19.9292 15.2844 20 15.4625 20 15.675V18.5C20 18.9 19.85 19.25 19.55 19.55C19.25 19.85 18.9 20 18.5 20H5.5ZM11.25 6.90005L8.775 9.37505C8.62833 9.52505 8.45417 9.59588 8.2525 9.58755C8.05083 9.57922 7.87174 9.50005 7.71523 9.35005C7.57174 9.20005 7.5 9.02088 7.5 8.81255C7.5 8.60422 7.575 8.42505 7.725 8.27505L11.475 4.52505C11.5583 4.44172 11.6428 4.38338 11.7283 4.35005C11.8139 4.31672 11.9056 4.30005 12.0033 4.30005C12.1011 4.30005 12.1917 4.31672 12.275 4.35005C12.3583 4.38338 12.4417 4.44172 12.525 4.52505L16.3 8.30005C16.45 8.45005 16.525 8.62505 16.525 8.82505C16.525 9.02505 16.4533 9.20005 16.3098 9.35005C16.1533 9.50005 15.9708 9.57505 15.7625 9.57505C15.5542 9.57505 15.375 9.50005 15.225 9.35005L12.75 6.90005V15.425C12.75 15.6375 12.6777 15.8157 12.5331 15.9594C12.3885 16.1032 12.2094 16.175 11.9956 16.175C11.7819 16.175 11.6042 16.1032 11.4625 15.9594C11.3208 15.8157 11.25 15.6375 11.25 15.425V6.90005Z" fill="white"/>
</svg>
